<?xml version="1.0" standalone="no"?>
<!DOCTYPE svg PUBLIC "-//W3C//DTD SVG 20010904//EN"
 "http://www.w3.org/TR/2001/REC-SVG-20010904/DTD/svg10.dtd">
<svg version="1.0" xmlns="http://www.w3.org/2000/svg"
 width="1600.000000pt" height="1600.000000pt" viewBox="0 0 1600.000000 1600.000000"
 preserveAspectRatio="xMidYMid meet">
<metadata>
Created by potrace 1.11, written by Peter Selinger 2001-2013
</metadata>
<g transform="translate(0.000000,1600.000000) scale(0.100000,-0.100000)"
fill="#000000" stroke="none">
<path d="M11100 15982 c-14 -9 -26 -20 -28 -24 -2 -5 -10 -8 -18 -8 -8 0 -14
-4 -14 -10 0 -5 -9 -10 -19 -10 -11 0 -33 -11 -49 -25 -16 -13 -33 -21 -37
-17 -5 4 -5 -2 -1 -13 4 -11 4 -16 0 -12 -4 4 -13 -1 -21 -11 -14 -16 -14 -16
-9 1 3 9 1 17 -4 17 -6 0 -10 -6 -10 -14 0 -16 -47 -49 -59 -42 -5 3 -11 -3
-14 -14 -3 -13 -14 -20 -30 -20 -14 0 -32 -10 -41 -22 -15 -21 -17 -21 -12 -3
6 19 5 19 -8 3 -12 -16 -33 -18 -175 -18 -134 0 -163 -3 -167 -15 -4 -8 -10
-12 -15 -9 -5 3 -16 -2 -25 -10 -9 -9 -19 -14 -23 -11 -5 2 -17 -5 -29 -15
-12 -11 -24 -20 -28 -20 -4 0 -15 -9 -25 -21 -10 -11 -24 -21 -31 -23 -20 -3
-78 -39 -78 -49 0 -4 -4 -6 -9 -3 -5 3 -11 -1 -14 -9 -4 -8 -15 -12 -28 -10
-12 2 -19 2 -15 -2 6 -6 -34 -39 -44 -36 -3 0 -21 -12 -40 -27 -19 -15 -39
-28 -45 -28 -5 -1 -24 -12 -42 -26 -17 -14 -38 -23 -47 -20 -9 3 -19 -3 -26
-16 -6 -12 -25 -26 -41 -32 -16 -5 -29 -14 -29 -20 0 -5 -4 -7 -10 -3 -5 3
-22 -8 -39 -25 -16 -17 -39 -32 -50 -33 -12 -1 -21 -4 -21 -7 0 -8 9 -8 -349
-10 -286 -1 -295 -2 -313 -22 -10 -12 -18 -18 -18 -14 0 4 -7 0 -16 -8 -8 -9
-22 -16 -30 -16 -9 0 -12 -5 -8 -12 5 -8 2 -9 -9 -5 -10 3 -17 2 -17 -4 0 -12
-61 -39 -72 -33 -5 3 -8 -2 -8 -11 0 -14 -24 -29 -55 -34 -5 -1 -15 -12 -22
-24 -7 -12 -12 -16 -13 -9 0 8 -11 2 -27 -13 -16 -14 -42 -31 -60 -37 -21 -8
-29 -16 -25 -26 3 -9 1 -13 -5 -9 -5 4 -19 0 -29 -8 -10 -8 -28 -15 -38 -15
-11 0 -16 -3 -13 -7 9 -8 -24 -32 -45 -33 -10 0 -18 -4 -18 -10 0 -5 -7 -10
-15 -10 -9 0 -18 -7 -21 -15 -4 -8 -15 -15 -25 -15 -10 0 -19 -7 -19 -15 0 -9
-12 -18 -29 -21 -17 -4 -43 -19 -58 -34 -19 -19 -32 -25 -40 -19 -7 7 -14 6
-19 -2 -5 -8 -3 -9 6 -4 9 5 11 4 6 -3 -4 -7 -13 -12 -21 -12 -8 0 -21 -10
-29 -22 -9 -12 -16 -18 -16 -13 -1 6 -10 -1 -22 -15 l-21 -25 8 25 7 25 -21
-27 c-15 -18 -32 -28 -49 -28 -16 0 -22 -3 -15 -8 7 -4 50 -7 97 -6 66 0 83
-2 79 -13 -3 -7 -11 -13 -18 -13 -7 0 -18 -7 -25 -15 -11 -13 -15 -13 -21 -3
-7 10 -9 9 -9 -4 0 -10 -7 -18 -15 -18 -9 0 -18 -6 -21 -14 -3 -8 -19 -18 -35
-21 -16 -4 -29 -11 -29 -17 0 -6 -7 -7 -16 -4 -12 5 -14 1 -8 -16 6 -20 5 -21
-9 -10 -13 11 -17 10 -29 -5 -26 -35 -78 -51 -210 -65 -9 -1 -14 -7 -11 -12 4
-5 -1 -7 -10 -3 -10 4 -17 1 -17 -6 0 -7 -20 -21 -43 -31 -23 -11 -52 -31 -63
-44 -16 -18 -23 -21 -27 -11 -4 11 -6 11 -6 1 -1 -7 -5 -10 -11 -7 -5 3 -10 1
-10 -5 0 -20 -24 -37 -45 -33 -16 4 -17 3 -5 -6 12 -9 11 -11 -7 -11 -13 0
-31 -8 -41 -17 -18 -18 -36 -25 -59 -26 -10 0 -10 -3 0 -15 10 -13 9 -15 -9
-10 -25 6 -36 1 -52 -27 -6 -11 -12 -14 -12 -7 0 6 -4 12 -10 12 -5 0 -7 -7
-4 -15 5 -12 -9 -21 -19 -12 -1 1 -15 -8 -31 -20 -16 -13 -32 -20 -37 -17 -5
3 -9 0 -9 -5 0 -8 -87 -11 -273 -11 l-272 0 -50 -35 c-28 -19 -59 -38 -70 -43
-11 -6 -29 -19 -39 -31 -11 -11 -25 -21 -33 -21 -7 0 -13 -5 -13 -12 0 -6 -3
-8 -7 -5 -3 4 -12 2 -20 -4 -7 -6 -13 -8 -13 -3 0 4 -6 0 -12 -9 -7 -9 -20
-17 -28 -19 -8 -2 -23 -13 -32 -25 -10 -12 -32 -25 -49 -28 -19 -4 -33 -15
-36 -26 -3 -10 -10 -19 -15 -19 -5 0 -6 5 -3 10 10 16 -8 11 -35 -10 -14 -11
-31 -20 -37 -20 -7 0 -13 -7 -13 -15 0 -12 -14 -15 -69 -15 -52 0 -70 -4 -75
-15 -3 -8 -14 -15 -23 -15 -10 0 -26 -9 -36 -20 -9 -11 -31 -23 -47 -27 -17
-3 -30 -11 -30 -19 0 -12 -31 -28 -55 -29 -6 0 -24 -13 -40 -28 -17 -15 -40
-30 -52 -33 -13 -4 -20 -11 -17 -19 4 -10 -1 -12 -15 -8 -13 3 -23 0 -27 -10
-3 -9 -19 -19 -35 -22 -16 -4 -29 -10 -29 -14 0 -7 -48 -38 -62 -40 -4 -1 -20
-13 -35 -27 -15 -13 -33 -22 -41 -19 -10 4 -12 0 -8 -12 4 -10 4 -14 0 -10 -4
3 -19 -2 -34 -13 -20 -14 -30 -16 -38 -8 -8 8 -12 8 -12 2 0 -18 -36 -54 -53
-54 -9 0 -19 -5 -22 -10 -4 -6 -12 -7 -18 -4 -7 4 -9 4 -5 -1 4 -4 -3 -16 -15
-25 -17 -14 -25 -16 -37 -7 -8 6 -12 8 -8 3 7 -8 2 -14 -42 -51 -13 -11 -20
-14 -16 -8 5 9 2 11 -8 7 -8 -3 -17 -12 -20 -20 -3 -9 -11 -12 -18 -8 -8 5 -9
2 -5 -11 6 -14 3 -16 -13 -12 -13 3 -18 1 -13 -6 4 -6 0 -8 -10 -4 -8 3 -18 0
-21 -8 -4 -10 -42 -14 -173 -15 -108 0 -170 -5 -174 -12 -4 -6 -12 -7 -18 -4
-6 4 -22 -4 -36 -18 -14 -14 -25 -22 -25 -18 -1 4 -9 -3 -20 -16 -11 -13 -24
-21 -30 -17 -5 3 -21 -5 -35 -19 -14 -15 -30 -26 -34 -26 -5 0 -14 -7 -21 -15
-8 -9 -21 -13 -34 -10 -17 5 -18 4 -6 -4 13 -9 13 -11 -2 -11 -9 0 -23 -8 -30
-17 -7 -10 -20 -19 -28 -21 -8 -2 -17 -8 -18 -13 -2 -5 -7 -7 -12 -4 -5 3 -15
-1 -22 -9 -15 -15 -58 -31 -72 -28 -5 2 -6 -4 -3 -12 5 -13 -24 -15 -210 -16
-191 -1 -222 -3 -260 -20 -31 -13 -42 -23 -37 -32 6 -9 3 -9 -9 1 -14 11 -18
11 -23 -3 -3 -9 -13 -16 -22 -16 -8 0 -12 -3 -9 -7 9 -8 -43 -34 -54 -27 -5 3
-12 -2 -15 -10 -3 -9 -12 -16 -20 -16 -8 0 -14 -7 -14 -15 0 -8 -6 -12 -14 -9
-7 3 -16 -2 -20 -11 -3 -10 -12 -15 -21 -11 -9 3 -15 0 -15 -9 0 -8 -9 -15
-20 -15 -11 0 -23 -7 -26 -15 -4 -8 -12 -15 -19 -15 -6 0 -22 -9 -35 -20 -12
-11 -26 -17 -30 -15 -4 3 -10 -2 -14 -10 -4 -12 -29 -15 -130 -15 -109 0 -126
-2 -135 -17 -6 -10 -11 -14 -11 -10 0 4 -12 -4 -26 -18 -14 -15 -32 -24 -39
-21 -7 2 -16 -2 -19 -10 -3 -9 -15 -14 -28 -12 -17 2 -22 -1 -20 -14 2 -13 -2
-16 -14 -11 -12 4 -15 3 -10 -5 4 -7 1 -12 -9 -12 -9 0 -14 -3 -11 -8 2 -4 -7
-12 -20 -19 -14 -6 -24 -7 -24 -1 0 5 -5 6 -11 3 -6 -4 -8 -13 -5 -21 3 -9 -1
-14 -13 -14 -10 0 -24 -7 -31 -15 -7 -8 -16 -12 -21 -9 -5 3 -9 0 -9 -5 0 -6
-7 -11 -15 -11 -8 0 -15 -5 -15 -11 0 -5 -4 -8 -8 -5 -5 3 -20 -5 -33 -17 -24
-22 -44 -24 -235 -26 -44 -1 -53 -4 -57 -22 -3 -12 -10 -18 -15 -15 -5 3 -15
-1 -22 -10 -7 -8 -19 -13 -27 -10 -7 3 -13 -1 -13 -8 0 -13 -27 -31 -42 -28
-5 1 -8 -2 -8 -8 0 -5 -5 -10 -12 -10 -6 0 -22 -10 -35 -22 -13 -12 -23 -17
-23 -11 0 6 6 14 13 16 9 4 9 6 -1 6 -8 1 -16 -8 -19 -20 -4 -12 -11 -18 -20
-15 -8 3 -11 1 -8 -4 6 -9 -8 -14 -28 -11 -5 1 -6 -3 -2 -9 3 -5 -1 -10 -10
-10 -9 0 -13 -5 -10 -11 4 -6 1 -10 -6 -8 -27 3 -39 -1 -39 -15 0 -8 -9 -12
-24 -11 -18 2 -23 -1 -19 -11 4 -10 0 -12 -13 -7 -11 4 -15 3 -10 -5 4 -7 -3
-14 -19 -18 -14 -3 -25 -10 -25 -16 0 -5 -4 -6 -10 -3 -5 3 -10 -1 -10 -9 0
-9 -7 -13 -20 -11 -12 2 -20 -2 -20 -10 0 -14 -127 -82 -143 -77 -5 1 -6 -2
-3 -7 6 -9 -17 -23 -40 -25 -6 -1 -25 -16 -43 -35 -17 -18 -31 -30 -31 -26 0
4 -6 3 -13 -2 -6 -6 -41 -11 -77 -12 -46 -2 -71 -8 -85 -20 -26 -24 -65 -44
-72 -37 -3 3 -14 -6 -25 -19 -12 -16 -25 -22 -36 -18 -9 3 -14 3 -10 -2 11
-11 -11 -35 -26 -29 -7 3 -18 -5 -25 -18 -6 -13 -9 -15 -7 -6 5 15 3 16 -14 5
-11 -6 -20 -15 -20 -19 0 -5 -7 -8 -15 -8 -8 0 -15 -5 -15 -11 0 -5 -5 -7 -10
-4 -6 4 -9 1 -8 -6 2 -7 -15 -22 -37 -33 -34 -18 -65 -22 -205 -26 -137 -5
-174 -10 -220 -28 -30 -12 -51 -21 -46 -22 5 0 -18 -17 -52 -37 -34 -21 -73
-48 -87 -61 -14 -12 -29 -20 -34 -18 -4 3 -20 -6 -36 -20 -15 -13 -32 -24 -37
-24 -4 0 -17 -9 -28 -20 -18 -18 -33 -20 -194 -20 -149 0 -175 -2 -180 -16 -4
-10 -13 -13 -27 -9 -13 5 -19 3 -15 -3 6 -9 -21 -27 -37 -24 -4 1 -7 -2525 -7
-5613 l0 -5615 8000 0 8000 0 0 8000 0 8000 -2437 -1 c-2273 0 -2440 -1 -2463
-17z m-1250 -586 c0 -3 -4 -8 -10 -11 -5 -3 -10 -1 -10 4 0 6 5 11 10 11 6 0
10 -2 10 -4z m-1375 -526 c3 -5 1 -10 -4 -10 -6 0 -11 5 -11 10 0 6 2 10 4 10
3 0 8 -4 11 -10z m-274 -177 c13 -16 12 -17 -3 -4 -17 13 -22 21 -14 21 2 0
10 -8 17 -17z m-29 -2184 c372 -222 680 -460 973 -754 817 -817 1308 -1878
1416 -3065 16 -175 16 -627 0 -800 -96 -1038 -472 -1950 -1132 -2740 -185
-223 -628 -650 -673 -650 -43 0 -576 269 -576 291 0 4 33 31 72 61 148 109
317 256 469 407 488 489 839 1062 1053 1718 195 599 253 1268 165 1902 -166
1195 -813 2252 -1796 2937 l-123 85 -111 -77 c-933 -646 -1580 -1637 -1789
-2739 -11 -60 -23 -119 -25 -130 -3 -14 -26 -29 -72 -49 -112 -48 -341 -161
-456 -226 -60 -33 -109 -60 -111 -60 -1 0 4 60 11 133 87 894 413 1738 953
2462 310 418 718 809 1155 1108 89 60 425 271 442 276 1 1 71 -40 155 -90z
m263 -3375 c396 -34 794 -120 1163 -250 86 -31 165 -58 174 -61 11 -3 18 -20
22 -51 18 -131 26 -265 26 -431 0 -170 -1 -183 -17 -178 -10 3 -82 33 -161 66
-744 316 -1615 408 -2422 255 -1134 -214 -2135 -887 -2773 -1866 -405 -621
-638 -1313 -693 -2056 l-7 -92 124 -59 c567 -271 1167 -404 1819 -404 527 0
966 76 1467 254 l111 40 59 -44 c104 -79 248 -175 384 -258 74 -44 136 -82
138 -85 5 -5 -163 -83 -302 -141 -451 -185 -914 -298 -1428 -349 -221 -22
-648 -22 -872 0 -709 70 -1347 273 -1976 629 l-124 70 6 256 c12 525 88 963
252 1456 237 713 633 1352 1175 1895 787 790 1774 1268 2880 1396 304 35 638
38 975 8z m2505 -970 c157 -119 284 -229 437 -378 793 -768 1293 -1777 1432
-2886 24 -193 41 -445 41 -617 l0 -121 -152 -86 c-651 -364 -1319 -568 -2042
-626 -166 -13 -535 -13 -707 0 -990 77 -1915 440 -2683 1054 -821 656 -1418
1587 -1675 2611 -34 137 -94 428 -88 431 1 0 38 28 82 61 44 32 109 79 144
103 76 51 324 201 327 197 1 -1 7 -47 14 -102 113 -970 562 -1882 1258 -2557
320 -309 643 -539 1047 -744 784 -397 1656 -543 2525 -423 433 60 896 201
1262 385 l89 44 -6 68 c-45 507 -131 889 -292 1297 -251 637 -683 1242 -1186
1664 -72 60 -78 68 -73 96 11 60 35 354 42 512 l7 163 51 -37 c28 -20 94 -70
146 -109z m-2795 -135 c435 -53 799 -362 919 -782 75 -260 52 -526 -68 -772
-143 -293 -395 -501 -705 -582 -119 -31 -322 -42 -439 -23 -231 37 -434 141
-603 309 -141 140 -235 304 -291 508 -19 66 -22 105 -22 258 -1 166 1 187 27
279 85 307 287 556 562 694 124 63 220 91 395 116 53 7 139 5 225 -5z"/>
<path d="M7891 7424 c-128 -34 -258 -140 -315 -256 -144 -293 26 -637 348
-705 298 -63 586 177 586 487 0 130 -51 251 -145 345 -123 123 -308 174 -474
129z"/>
<path d="M10020 15519 c0 -5 5 -7 10 -4 6 3 10 8 10 11 0 2 -4 4 -10 4 -5 0
-10 -5 -10 -11z"/>
<path d="M9940 15469 c0 -5 5 -7 10 -4 6 3 10 8 10 11 0 2 -4 4 -10 4 -5 0
-10 -5 -10 -11z"/>
</g>
</svg>
